<?xml version="1.0" standalone="no"?>
<!DOCTYPE svg PUBLIC "-//W3C//DTD SVG 20010904//EN"
 "http://www.w3.org/TR/2001/REC-SVG-20010904/DTD/svg10.dtd">
<svg version="1.0" xmlns="http://www.w3.org/2000/svg"
 width="400.000000pt" height="400.000000pt" viewBox="0 0 400.000000 400.000000"
 preserveAspectRatio="xMidYMid meet">
<metadata>
Created by potrace 1.11, written by Peter Selinger 2001-2013
</metadata>
<g transform="translate(0.000000,400.000000) scale(0.100000,-0.100000)"
fill="#000000" stroke="none">
<path d="M0 2000 l0 -2000 2000 0 2000 0 0 2000 0 2000 -2000 0 -2000 0 0
-2000z m2310 1681 c199 -35 373 -102 505 -196 69 -49 177 -159 224 -227 84
-125 151 -316 166 -480 7 -72 6 -78 -11 -78 -11 0 -158 -5 -328 -11 -169 -5
-310 -8 -312 -6 -2 2 -13 38 -23 79 -41 158 -124 274 -235 328 -106 52 -174
64 -351 65 -182 0 -262 -15 -381 -71 -243 -114 -246 -375 -7 -501 91 -49 246
-99 534 -173 577 -149 781 -240 961 -428 120 -125 190 -263 229 -447 20 -89
17 -354 -4 -437 -73 -296 -254 -526 -515 -657 -210 -106 -531 -160 -867 -148
-666 25 -1060 300 -1220 854 -26 87 -59 262 -52 270 5 4 640 64 643 60 1 -1
13 -45 28 -97 76 -273 214 -421 461 -492 70 -20 101 -23 250 -22 191 1 272 17
386 75 82 41 177 136 214 214 25 52 29 72 30 150 0 79 -3 96 -27 141 -72 136
-166 179 -704 318 -159 41 -336 91 -394 111 -136 47 -316 134 -394 189 -133
95 -266 265 -321 409 -82 218 -68 483 35 690 155 310 448 485 896 537 129 15
452 4 584 -19z"/>
</g>
</svg>
